<svg xmlns="http://www.w3.org/2000/svg" viewBox="0 0 64 64" width="64" height="64"><g class="nc-icon-wrapper" stroke="none" fill="#111111"><path fill="#111111" d="M61,8v40h-3c-7.289,0-17.575,1.553-25,7.737C25.62,49.592,15.347,48,8,48H5V8H3c-1.105,0-2,0.895-2,2v48 c0,1.105,0.895,2,2,2h58c1.105,0,2-0.895,2-2V10C63,8.895,62.105,8,61,8z"></path> <path data-color="color-2" d="M32,9.82C26.583,6.455,15.607,4,8,4H7v42h1c6.91,0,17.646,1.8,24,6.373V9.82z"></path> <path data-color="color-2" d="M58,4c-7.666,0-18.614,2.476-24,5.82v42.553C40.274,47.863,50.952,46,58,46h1V4H58z"></path></g></svg>