<svg version="1.1" xmlns="http://www.w3.org/2000/svg" width="439" height="512" viewBox="0 0 439 512"><title>facebook-square</title><path d="M356.572 36.572c45.428 0 82.286 36.857 82.286 82.285v274.286c0 45.428-36.857 82.286-82.286 82.286h-53.714v-170h56.857l8.572-66.286h-65.428v-42.286c0-19.143 5.143-32 32.857-32l34.857-0.286v-59.143c-6-0.857-26.857-2.572-50.857-2.572-50.572 0-85.428 30.857-85.428 87.428v48.857h-57.143v66.285h57.143v170h-152c-45.428 0-82.285-36.857-82.285-82.286v-274.286c0-45.428 36.857-82.285 82.285-82.285h274.286z"></path></svg>