<svg version="1.1" xmlns="http://www.w3.org/2000/svg" width="475" height="512" viewBox="0 0 475 512"><title>quote-left</title><path d="M219.429 274.286v109.714c0 30.286-24.571 54.857-54.857 54.857h-109.715c-30.285 0-54.857-24.572-54.857-54.857v-201.143c0-80.572 65.715-146.286 146.286-146.286h18.286c10 0 18.286 8.285 18.286 18.285v36.572c0 10-8.286 18.285-18.286 18.285h-18.286c-40.285 0-73.143 32.857-73.143 73.143v9.143c0 15.143 12.285 27.429 27.428 27.429h64c30.286 0 54.857 24.572 54.857 54.857zM475.428 274.286v109.714c0 30.286-24.572 54.857-54.857 54.857h-109.714c-30.286 0-54.857-24.572-54.857-54.857v-201.143c0-80.572 65.714-146.286 146.286-146.286h18.286c10 0 18.286 8.285 18.286 18.285v36.572c0 10-8.286 18.285-18.286 18.285h-18.286c-40.286 0-73.143 32.857-73.143 73.143v9.143c0 15.143 12.286 27.429 27.428 27.429h64c30.286 0 54.857 24.572 54.857 54.857z"></path></svg>