<svg version="1.1" xmlns="http://www.w3.org/2000/svg" width="439" height="512" viewBox="0 0 439 512"><title>whatsapp</title><path d="M281.428 278.286c4.857 0 51.428 24.286 53.428 27.714 0.572 1.428 0.572 3.143 0.572 4.286 0 7.143-2.286 15.143-4.857 21.714-6.572 16-33.143 26.286-49.428 26.286-13.714 0-42-12-54.286-17.714-40.857-18.572-66.286-50.286-90.857-86.572-10.857-16-20.572-35.714-20.285-55.428v-2.286c0.572-18.857 7.428-32.286 21.143-45.143 4.286-4 8.857-6.286 14.857-6.286 3.429 0 6.857 0.857 10.571 0.857 7.714 0 9.143 2.286 12 9.714 2 4.857 16.572 43.714 16.572 46.572 0 10.857-19.714 23.143-19.714 29.714 0 1.429 0.571 2.857 1.429 4.286 6.286 13.428 18.285 28.857 29.143 39.143 13.143 12.572 27.143 20.857 43.143 28.857 2 1.143 4 2 6.286 2 8.571 0 22.857-27.714 30.285-27.714zM223.429 429.714c98.857 0 179.429-80.572 179.429-179.429s-80.572-179.429-179.429-179.429-179.429 80.572-179.429 179.429c0 37.715 12 74.571 34.285 105.143l-22.572 66.572 69.143-22c29.143 19.143 63.715 29.714 98.571 29.714zM223.429 34.857c118.857 0 215.429 96.571 215.429 215.429s-96.572 215.429-215.429 215.429c-36.285 0-72.285-9.143-104.285-26.857l-119.143 38.286 38.857-115.714c-20.285-33.428-30.857-72-30.857-111.143 0-118.857 96.572-215.429 215.429-215.429z"></path></svg>